<mxfile host="app.diagrams.net" modified="2023-08-04T13:07:05.317Z" agent="Mozilla/5.0 (Windows NT 10.0; Win64; x64) AppleWebKit/537.36 (KHTML, like Gecko) Chrome/115.0.0.0 Safari/537.36" etag="PDejufrbbtHCMUGi0A2m" version="21.2.9" type="device">
  <diagram name="‫עמוד-1‬" id="5gKYuw3IehXZCxR-OftG">
    <mxGraphModel dx="2901" dy="1118" grid="1" gridSize="10" guides="1" tooltips="1" connect="1" arrows="1" fold="1" page="1" pageScale="1" pageWidth="827" pageHeight="1169" math="0" shadow="0">
      <root>
        <mxCell id="0" />
        <mxCell id="1" parent="0" />
        <mxCell id="hDRVIhOk30fAvh_qmpDP-36" style="edgeStyle=orthogonalEdgeStyle;rounded=0;orthogonalLoop=1;jettySize=auto;html=1;entryX=0.5;entryY=0;entryDx=0;entryDy=0;" edge="1" parent="1" source="hDRVIhOk30fAvh_qmpDP-33" target="hDRVIhOk30fAvh_qmpDP-34">
          <mxGeometry relative="1" as="geometry" />
        </mxCell>
        <mxCell id="hDRVIhOk30fAvh_qmpDP-33" value="Wakeup" style="ellipse;whiteSpace=wrap;html=1;aspect=fixed;" vertex="1" parent="1">
          <mxGeometry x="400" y="160" width="80" height="80" as="geometry" />
        </mxCell>
        <mxCell id="hDRVIhOk30fAvh_qmpDP-37" style="edgeStyle=orthogonalEdgeStyle;rounded=0;orthogonalLoop=1;jettySize=auto;html=1;entryX=0.5;entryY=0;entryDx=0;entryDy=0;" edge="1" parent="1" source="hDRVIhOk30fAvh_qmpDP-34" target="hDRVIhOk30fAvh_qmpDP-35">
          <mxGeometry relative="1" as="geometry" />
        </mxCell>
        <mxCell id="hDRVIhOk30fAvh_qmpDP-34" value="Scan for Devices" style="ellipse;whiteSpace=wrap;html=1;aspect=fixed;" vertex="1" parent="1">
          <mxGeometry x="400" y="280" width="80" height="80" as="geometry" />
        </mxCell>
        <mxCell id="hDRVIhOk30fAvh_qmpDP-40" style="edgeStyle=orthogonalEdgeStyle;rounded=0;orthogonalLoop=1;jettySize=auto;html=1;entryX=0.5;entryY=0;entryDx=0;entryDy=0;" edge="1" parent="1" source="hDRVIhOk30fAvh_qmpDP-35" target="hDRVIhOk30fAvh_qmpDP-38">
          <mxGeometry relative="1" as="geometry" />
        </mxCell>
        <mxCell id="hDRVIhOk30fAvh_qmpDP-41" style="edgeStyle=orthogonalEdgeStyle;rounded=0;orthogonalLoop=1;jettySize=auto;html=1;entryX=0.5;entryY=0;entryDx=0;entryDy=0;" edge="1" parent="1" source="hDRVIhOk30fAvh_qmpDP-35" target="hDRVIhOk30fAvh_qmpDP-39">
          <mxGeometry relative="1" as="geometry" />
        </mxCell>
        <mxCell id="hDRVIhOk30fAvh_qmpDP-35" value="Scan for master connection" style="ellipse;whiteSpace=wrap;html=1;aspect=fixed;" vertex="1" parent="1">
          <mxGeometry x="400" y="400" width="80" height="80" as="geometry" />
        </mxCell>
        <mxCell id="hDRVIhOk30fAvh_qmpDP-48" style="edgeStyle=orthogonalEdgeStyle;rounded=0;orthogonalLoop=1;jettySize=auto;html=1;entryX=0.5;entryY=0;entryDx=0;entryDy=0;" edge="1" parent="1" source="hDRVIhOk30fAvh_qmpDP-38" target="hDRVIhOk30fAvh_qmpDP-47">
          <mxGeometry relative="1" as="geometry" />
        </mxCell>
        <mxCell id="hDRVIhOk30fAvh_qmpDP-38" value="Slave Mode" style="ellipse;whiteSpace=wrap;html=1;aspect=fixed;" vertex="1" parent="1">
          <mxGeometry x="560" y="520" width="80" height="80" as="geometry" />
        </mxCell>
        <mxCell id="hDRVIhOk30fAvh_qmpDP-44" style="edgeStyle=orthogonalEdgeStyle;rounded=0;orthogonalLoop=1;jettySize=auto;html=1;entryX=0.5;entryY=0;entryDx=0;entryDy=0;" edge="1" parent="1" source="hDRVIhOk30fAvh_qmpDP-39" target="hDRVIhOk30fAvh_qmpDP-42">
          <mxGeometry relative="1" as="geometry" />
        </mxCell>
        <mxCell id="hDRVIhOk30fAvh_qmpDP-39" value="Standalone&lt;br&gt;Mode" style="ellipse;whiteSpace=wrap;html=1;aspect=fixed;" vertex="1" parent="1">
          <mxGeometry x="240" y="520" width="80" height="80" as="geometry" />
        </mxCell>
        <mxCell id="hDRVIhOk30fAvh_qmpDP-45" style="edgeStyle=orthogonalEdgeStyle;orthogonalLoop=1;jettySize=auto;html=1;exitX=0.5;exitY=1;exitDx=0;exitDy=0;entryX=0.5;entryY=1;entryDx=0;entryDy=0;curved=1;" edge="1" parent="1" source="hDRVIhOk30fAvh_qmpDP-42" target="hDRVIhOk30fAvh_qmpDP-43">
          <mxGeometry relative="1" as="geometry" />
        </mxCell>
        <mxCell id="hDRVIhOk30fAvh_qmpDP-42" value="Poll Devices" style="ellipse;whiteSpace=wrap;html=1;aspect=fixed;" vertex="1" parent="1">
          <mxGeometry x="240" y="640" width="80" height="80" as="geometry" />
        </mxCell>
        <mxCell id="hDRVIhOk30fAvh_qmpDP-46" style="edgeStyle=orthogonalEdgeStyle;orthogonalLoop=1;jettySize=auto;html=1;entryX=0.5;entryY=0;entryDx=0;entryDy=0;curved=1;" edge="1" parent="1" source="hDRVIhOk30fAvh_qmpDP-43" target="hDRVIhOk30fAvh_qmpDP-42">
          <mxGeometry relative="1" as="geometry">
            <Array as="points">
              <mxPoint x="120" y="620" />
              <mxPoint x="280" y="620" />
            </Array>
          </mxGeometry>
        </mxCell>
        <mxCell id="hDRVIhOk30fAvh_qmpDP-43" value="Output" style="ellipse;whiteSpace=wrap;html=1;aspect=fixed;" vertex="1" parent="1">
          <mxGeometry x="80" y="640" width="80" height="80" as="geometry" />
        </mxCell>
        <mxCell id="hDRVIhOk30fAvh_qmpDP-53" value="No Config" style="edgeStyle=orthogonalEdgeStyle;rounded=0;orthogonalLoop=1;jettySize=auto;html=1;entryX=0.5;entryY=0;entryDx=0;entryDy=0;" edge="1" parent="1" source="hDRVIhOk30fAvh_qmpDP-47" target="hDRVIhOk30fAvh_qmpDP-49">
          <mxGeometry y="10" relative="1" as="geometry">
            <mxPoint as="offset" />
          </mxGeometry>
        </mxCell>
        <mxCell id="hDRVIhOk30fAvh_qmpDP-54" value="Config" style="edgeStyle=orthogonalEdgeStyle;rounded=0;orthogonalLoop=1;jettySize=auto;html=1;entryX=0.5;entryY=0;entryDx=0;entryDy=0;" edge="1" parent="1" source="hDRVIhOk30fAvh_qmpDP-47" target="hDRVIhOk30fAvh_qmpDP-51">
          <mxGeometry relative="1" as="geometry">
            <Array as="points">
              <mxPoint x="520" y="680" />
            </Array>
          </mxGeometry>
        </mxCell>
        <mxCell id="hDRVIhOk30fAvh_qmpDP-47" value="Config Transmission" style="ellipse;whiteSpace=wrap;html=1;aspect=fixed;" vertex="1" parent="1">
          <mxGeometry x="560" y="640" width="80" height="80" as="geometry" />
        </mxCell>
        <mxCell id="hDRVIhOk30fAvh_qmpDP-57" style="edgeStyle=orthogonalEdgeStyle;orthogonalLoop=1;jettySize=auto;html=1;entryX=1;entryY=0.5;entryDx=0;entryDy=0;curved=1;" edge="1" parent="1" source="hDRVIhOk30fAvh_qmpDP-49" target="hDRVIhOk30fAvh_qmpDP-50">
          <mxGeometry relative="1" as="geometry">
            <Array as="points">
              <mxPoint x="780" y="800" />
              <mxPoint x="780" y="610" />
            </Array>
          </mxGeometry>
        </mxCell>
        <mxCell id="hDRVIhOk30fAvh_qmpDP-49" value="Device Polling" style="ellipse;whiteSpace=wrap;html=1;aspect=fixed;" vertex="1" parent="1">
          <mxGeometry x="680" y="760" width="80" height="80" as="geometry" />
        </mxCell>
        <mxCell id="hDRVIhOk30fAvh_qmpDP-58" style="edgeStyle=orthogonalEdgeStyle;orthogonalLoop=1;jettySize=auto;html=1;entryX=1;entryY=0;entryDx=0;entryDy=0;curved=1;" edge="1" parent="1" source="hDRVIhOk30fAvh_qmpDP-50" target="hDRVIhOk30fAvh_qmpDP-47">
          <mxGeometry relative="1" as="geometry" />
        </mxCell>
        <mxCell id="hDRVIhOk30fAvh_qmpDP-50" value="Tansmit to master" style="ellipse;whiteSpace=wrap;html=1;aspect=fixed;" vertex="1" parent="1">
          <mxGeometry x="680" y="570" width="80" height="80" as="geometry" />
        </mxCell>
        <mxCell id="hDRVIhOk30fAvh_qmpDP-56" value="Rescan Requested" style="edgeStyle=orthogonalEdgeStyle;orthogonalLoop=1;jettySize=auto;html=1;entryX=0;entryY=0.5;entryDx=0;entryDy=0;curved=1;" edge="1" parent="1" source="hDRVIhOk30fAvh_qmpDP-51" target="hDRVIhOk30fAvh_qmpDP-34">
          <mxGeometry relative="1" as="geometry">
            <Array as="points">
              <mxPoint x="10" y="800" />
              <mxPoint x="10" y="320" />
            </Array>
          </mxGeometry>
        </mxCell>
        <mxCell id="hDRVIhOk30fAvh_qmpDP-59" style="edgeStyle=orthogonalEdgeStyle;orthogonalLoop=1;jettySize=auto;html=1;entryX=0;entryY=0;entryDx=0;entryDy=0;curved=1;" edge="1" parent="1" source="hDRVIhOk30fAvh_qmpDP-51" target="hDRVIhOk30fAvh_qmpDP-47">
          <mxGeometry relative="1" as="geometry">
            <Array as="points">
              <mxPoint x="470" y="800" />
              <mxPoint x="470" y="600" />
              <mxPoint x="572" y="600" />
            </Array>
          </mxGeometry>
        </mxCell>
        <mxCell id="hDRVIhOk30fAvh_qmpDP-51" value="Config Mode" style="ellipse;whiteSpace=wrap;html=1;aspect=fixed;" vertex="1" parent="1">
          <mxGeometry x="480" y="760" width="80" height="80" as="geometry" />
        </mxCell>
      </root>
    </mxGraphModel>
  </diagram>
</mxfile>
